<?xml version="1.0" encoding="UTF-8"?>
<!-- Created with Inkscape (http://www.inkscape.org/) -->
<svg width="1e3" height="1e3" version="1.1" viewBox="0 0 1e3 1e3" xmlns="http://www.w3.org/2000/svg">
 <path d="m7.3656 772.14c3.8786-0.50503 10.47-1.1604 14.647-1.4564 4.1769-0.29589 16.626-1.2644 27.666-2.1519 11.039-0.8875 30.08-2.3678 42.312-3.2896 12.233-0.92176 30.785-2.3973 41.227-3.279 10.442-0.88167 22.51-1.6008 26.818-1.5982 6.517 4e-3 7.7268-0.26813 7.2072-1.6225-0.34347-0.89509-1.288-1.6274-2.099-1.6274-2.3594 0-21.7-9.0029-28.129-13.094-1.7901-1.1391-3.9871-2.4071-4.8822-2.8176-0.89504-0.4106-1.8715-1.0276-2.1698-1.3712-0.29851-0.34358-2.6174-2.0323-5.1534-3.7527-2.536-1.7204-4.6109-3.5499-4.6109-4.0654 0-0.51557-0.45862-0.93738-1.0192-0.93738-1.2742 0-18.51-17.151-18.51-18.419 0-0.51081-0.39457-1.0915-0.87682-1.2904-0.85577-0.35294-7.0973-9.0528-9.5996-13.381-13.387-23.153-17.665-55.68-10.489-79.742 2.0497-6.8728 7.7628-19.398 9.8088-21.505 0.76575-0.78848 1.3923-1.8543 1.3923-2.3684 0-0.51408 3.1607-4.1425 7.0238-8.063 6.4922-6.5888 6.9404-7.3476 5.9223-10.026-2.4026-6.3192 1.2834-11.618 13.421-19.293l6.2957-3.981-3.0409-2.3017c-3.0016-3.0455-6.1164-7.9417-8.9521-11.656 24.247-22.191 51.415-46.945 68.644-59.128 1.4269-1.0434 1.8201-3.1108 1.8201-9.5703v-8.2394l-4.0685-0.70118c-2.2377-0.38563-6.9262-1.5489-10.419-2.585-5.2844-1.5676-6.7297-2.5474-8.6096-5.8369-1.2425-2.1742-2.0464-4.0977-1.7865-4.2745 0.25997-0.17668 4.694-4.0918 9.8535-8.7l9.3808-8.3786 26.805-0.24031-6.5096-1.4987c-11.541-2.657-14.646-3.9103-14.646-5.9106 0-2.6702 3.2631-9.5396 6.9368-14.604 3.3196-4.5757 13.664-13.549 15.62-13.549 0.63623 0 1.8019-0.62522 2.5904-1.3894 1.6299-1.5796 35.249-18.247 41.033-20.343 2.0885-0.75685 5.2619-1.9548 7.052-2.6623 6.7411-2.6637 10.967-4.0499 14.674-4.8141 2.1037-0.43357 4.7889-1.3473 5.9671-2.0305 3.6526-2.118-12.059-1.582-24.088 0.82161-10.764 2.151-13.832 3.0284-23.677 6.7727-7.7758 2.9572-8.7903 3.4058-18.715 8.2738-4.9228 2.4147-8.9477 4.0538-8.9441 3.6426 4e-3 -0.41121 5.3582-4.6534 11.899-9.4271 6.5409-4.7737 12.137-9.2897 12.436-10.036 0.41157-1.0269-1.9179-1.3561-9.5962-1.3561h-10.14l-6.9139 7.4528c-3.8026 4.099-8.1298 8.8592-9.6159 10.578-2.8463 3.292-15.961 18.581-19.898 23.196-1.2724 1.4918-6.9159 8.815-12.541 16.274-5.6253 7.4588-10.556 13.806-10.956 14.104-2.7685 2.0622-19.67 28.857-23.61 37.43-0.82267 1.7901-1.9365 4.0767-2.4751 5.0813-2.2654 4.2251-5.4832 15.481-5.178 18.113 0.28349 2.4456 0.8548 1.8182 4.078-4.4794 2.0615-4.0278 4.1364-7.3232 4.6109-7.3232 0.47454 0 0.86282-0.69161 0.86282-1.537s0.38636-1.6997 0.8586-1.8986c0.47226-0.19888 2.3031-2.3049 4.0685-4.6799 4.5605-6.1355 6.7964-8.7215 13.184-15.248 5.642-5.7652 6.3294-5.896 8.3565-1.5894 0.42125 0.89509 1.6542 3.3123 2.7399 5.3718 1.6187 3.0704 1.7203 3.9979 0.56486 5.1534-0.77499 0.77501-1.6378 1.4091-1.9175 1.4091-2.5708 0-27.855 25.617-27.855 28.222 0 0.48951-0.36617 1.0527-0.81369 1.2516-1.1659 0.51821-5.6959 7.1366-5.6959 8.3218 0 0.54779-0.73231 1.6038-1.6274 2.3466-2.329 1.9329-2.0508 10.039 0.53962 15.725 1.1919 2.6163 3.6125 5.139 4.2108 5.5088-5.7045 14.528-10.399 6.3627-13.828-3.8145-4.7278-14.282-2.4028-35.636 6.0306-55.392 4.9228-8.1224 9.0229-17.834 14.438-26.211 4.0129-6.2072 8.7771-12.926 13.319-17.728 1.6928-1.7901 8.979-11.066 16.191-20.614 7.2125-9.5474 13.776-17.901 14.585-18.563 0.80932-0.66247 1.4715-1.7203 1.4715-2.3506 0-0.6304 0.39588-1.3089 0.87976-1.5078 0.48387-0.1989 4.2389-4.2674 8.3445-9.041 16.35-19.011 22.73-23.326 34.488-23.326 5.5081 0 16.804 2.7081 22.655 5.4315 2.2543 1.0492 3.7019 1.0657 6.5096 0.0741 5.2306-1.8475 19.207-4.4202 24.015-4.4204 8.2691-3.8e-4 23.535 5.2957 23.535 8.1647 0 2.7276-3.5778 5.895-7.3544 6.5109-2.2205 0.36212-5.7461 1.3-7.8346 2.0842-2.0885 0.78418-7.3432 2.5173-11.677 3.8513-4.334 1.3341-8.1465 2.8568-8.4722 3.3838-0.3256 0.52696-1.322 0.95816-2.214 0.95816-1.7022 0-21.666 9.5811-26.637 12.784-7.6984 4.9598-14.981 10.159-15.574 11.119-1.2053 1.9502 5.1648 6.5392 12.664 9.1228 2.5475 0.87768 4.6607 1.4954 4.6959 1.3726 0.0353-0.12273 1.1404-2.5298 2.456-5.349 1.7626-3.7771 3.1842-5.3205 5.403-5.8655 1.656-0.40688 5.6962-2.074 8.9781-3.7046 16.695-8.2952 20.304-9.7149 24.7-9.7149 2.5262 0 4.5976-0.36616 4.6031-0.81368 6e-3 -0.44756 2.0963-3.1757 4.6461-6.0627 5.5926-6.3318 11.988-8.904 24.932-10.027 9.5895-0.83208 18.601-3.9279 17.905-6.1514-0.23318-0.7458-2.8656-2.5288-5.8498-3.9621-5.0449-2.4231-5.7371-3.261-9.8587-11.934-2.438-5.1304-5.5026-12.013-6.8102-15.295-1.3075-3.2819-2.8286-6.8228-3.3803-7.8686-2.6302-4.9865-8.5878-25.072-9.753-32.882-2.9016-19.448 4.7785-38.863 20.359-51.468 2.5814-2.0885 5.3023-4.2855 6.0464-4.8822 1.5694-1.2586 9.6446-5.1136 14.372-6.8609 7.2254-2.6706 22.816-4.7812 30.557-4.1365 11.1 0.92434 26.477 3.7426 28.194 5.1671 0.80439 0.66758 1.4625 2.6101 1.4625 4.3167 0 2.1949 1.4149 4.5796 4.835 8.149 2.6593 2.7754 6.1975 7.0558 7.8627 9.5122 1.6652 2.4563 3.2731 4.7102 3.5731 5.0085 1.257 1.2499 4.3236 8.4647 5.4173 12.745l1.1775 4.6083 4.0273-1.8605c5.9594-2.7531 23.823-3.2287 28.627-0.7623 7.4391 3.819 33.999 22.192 36.698 25.387 0.2985 0.35308 2.0071 1.7629 3.7973 3.133 8.7336 6.6843 35.26 32.045 35.26 33.71 0 0.38139 3.2346 1.6514 7.188 2.8223 6.6045 1.956 7.8054 2.8106 14.792 10.527 7.5508 8.3394 15.779 14.044 26.841 18.61 12.716 5.2486 18.399 8.8966 24.975 16.031 6.1708 6.6955 10.828 18.672 10.828 27.847 0 4.8763 1.5635 5.9935 3.7973 2.3457 7.96-12.999 18.477-24.093 25.496-36.174 2.0248-3.4852 3.877-4.1425 10.307-6.3237 7.3484-2.4928 31.809-2.6411 47.194-0.2861 16.794 2.5707 23.967 4.7841 26.948 8.3158 1.9151 2.2682 3.5118 3.0083 6.5096 3.0171 2.1846 6e-3 10.563 0.71302 18.619 1.5703 15.28 1.626 20.503 3.2974 24.605 7.8736 2.0733 2.3129 2.6722 2.4725 4.868 1.2974 9.1535-4.8988 28.582 2.5012 30.909 11.773 1.2199 4.8602-0.63977 19.576-3.0854 24.416-2.8033 5.5479-10.81 13.542-14.487 14.465-3.0547 0.76671-3.036 0.69028-1.5105 6.1837 1.6685 6.0082-0.52748 14.533-5.413 21.015-4.4241 5.8694-8.2404 8.0676-18.527 10.672-14.628 3.7031-20.214 5.1638-24.953 6.5252-10.574 3.0376-22.965 6.367-37.972 10.202l-8.1369 2.0796 18.444-0.61232c14.35-0.47639 21.093-0.20477 30.378 1.2233 18.352 2.8226 24.018 4.22 37.972 9.3654 3.3928 1.251 25.974 12.214 26.581 12.904 1.2456 1.4185 7.5867 5.5 8.5451 5.5 0.57111 0 1.2011 0.36617 1.4001 0.81369 0.1989 0.44753 2.8027 2.7453 5.7862 5.1061 15.582 12.33 29.361 29.288 37.502 46.157 1.296 2.6852 2.7827 5.7241 3.304 6.7532 4.6567 9.1944 8.5581 27.974 8.5581 41.194 0 26.155-10.148 51.338-28.594 70.961l-7.0373 7.4861 3.4404 0.37716c1.8922 0.20738 12.228-0.38499 22.969-1.3165 10.741-0.93147 29.537-2.4593 41.77-3.3952 90.414-6.9172 92.023-7.0514 94.139-7.8527 4.3606-1.6509-1.5149 2.5167-6.2603 4.4407-2.6852 1.0886-6.3468 2.6231-8.137 3.41-1.7901 0.78686-4.2312 1.6817-5.4246 1.9886-1.1933 0.30698-5.5874 1.7308-9.7643 3.1644-27.912 9.5796-58.777 15.561-107.41 20.816-24.171 2.6116-81.804 6.9277-174.13 13.04-13.426 0.88891-35.396 2.3451-48.822 3.236-13.426 0.89091-36.86 2.3749-52.076 3.2978-15.216 0.92292-35.477 2.185-45.024 2.8048-9.5473 0.61971-27.367 1.5766-39.6 2.1265-12.233 0.54984-24.194 1.2633-26.581 1.5855-2.3868 0.32203-15.08 1.0508-28.208 1.619-13.128 0.56829-32.412 1.5319-42.855 2.1413-17.164 1.0017-116.63 5.5176-116.63 5.5176l-83.137 2.8892-13.763 0.72303c-7.5694 0.39766-24.747 0.9844-38.173 1.3039-13.426 0.31941-51.053 1.2874-83.615 2.1509-63.844 1.693-69.278 1.7229-58.51 0.32104zm297.81-23.152c7.7572-0.87745 16.789-1.5975 20.071-1.6001 3.2819-3e-3 14.511-0.7327 24.953-1.6224 18.544-1.58 38.48-3.146 83.539-6.5622 45.561-3.4542 86.137-6.5692 126.94-9.7448 11.039-0.85923 30.568-2.3333 43.397-3.2757 12.829-0.94236 31.87-2.4068 42.312-3.2544 10.442-0.8475 23.588-1.826 29.212-2.1744 5.624-0.34841 10.658-0.90071 11.186-1.2273 0.52849-0.32663-1.3877-1.841-4.2583-3.3651-26.368-17.548-26.589-17.667-38.913-32.12-1.458-1.7023-2.6509-3.4733-2.6509-3.9356 0-0.4623-0.73232-1.4483-1.6274-2.1912-1.318-1.0938-1.6274-1.0546-1.6274 0.20576 0 3.1781-4.386 10.474-9.0751 15.097-4.9576 4.8874-14.902 10.419-23.345 12.986-5.334 1.6218-6.2141 2.3462-11.074 9.1135-1.8894 2.631-4.2272 5.1245-5.1951 5.5412-2.5719 1.1071-147.51 1.3785-206.05 0.38586l-50.229-0.85181-4.0174-4.6468c-9.3216-10.782-9.9193-11.344-9.9526-9.352-0.0163 1.0442-0.41297 1.8986-0.87886 1.8986-0.46591 0-1.4246 1.3426-2.1305 2.9835-2.6467 6.1528-14.742 22.285-20.545 27.402-7.0371 6.2054-10.091 8.6714-10.738 8.6714-0.33645 0-1.344 0.73231-2.2391 1.6274-1.4466 1.4466-1.0462 1.6262 3.6035 1.6165 2.877-6e-3 11.578-0.72878 19.335-1.6062zm-52.718-26.656c22.433-6.9052 36.827-21.088 41.253-40.645 1.7203-7.6028 1.543-20.277-0.4093-29.267-0.90715-4.177-1.6578-7.9606-1.6682-8.4082-0.05-2.1582-1.9004-0.40532-3.1134 2.9491-0.88421 2.4452-1.1073 6.0019-0.6372 10.157 1.1876 10.496-1.2924 22.524-6.9263 33.592-2.0716 4.0697-11.512 14.329-13.186 14.329-0.61014 0-1.1093 0.39432-1.1093 0.87625 0 1.7008-14.477 8.0532-22.984 10.085-16.14 3.8548-43.16 2.2848-59.47-3.4556-4.0461-1.4241-24.042-10.913-24.953-11.841-0.29817-0.30405-2.6174-1.9604-5.1534-3.6808-2.536-1.7204-4.611-3.5499-4.611-4.0654 0-0.51555-0.48875-0.93737-1.0861-0.93737-2.5867 0-14.642-14.134-20.307-23.809-5.2979-9.048-6.5491-12.466-9.2984-25.403-2.2496-10.586-2.2525-10.801-0.27237-20.614 1.1004-5.4539 2.3841-10.649 2.8526-11.544 0.46849-0.89506 1.9809-4.0448 3.3609-6.9995 2.5646-5.491 12.036-16.279 20.006-22.293 0.49428-0.37297 1.1335-0.50435 1.6699-0.8137 2.9436-1.6977 5.4968-4.0231 8.4546-5.6958 0.47649-0.26946 0.98548-0.47774 1.4882-0.6943 0.56449-0.24314 1.254-0.27149 1.7144-0.67869 0.43053-0.38078 1.22-1.1195 0.82578-1.5137-0.39423-0.39426-2.3064 0.0467-4.2493 0.97981-1.9429 0.93314-4.753 2.222-6.2448 2.8642-19.55 8.4155-33.754 24.226-38.616 42.982-1.9539 7.5374-2.2392 21.402-0.53155 25.838 0.64658 1.6798 1.1756 4.0471 1.1756 5.2607 0 2.7176 5.0929 14.588 8.9915 20.957 15.111 24.686 41.101 42.175 76.718 51.622 13.823 3.6666 44.207 3.595 56.317-0.1326zm339.65-19.054c0.0748-2.6378 16.632-37.783 18.28-38.802 0.5719-0.35344 4.1459-4.1674 7.9422-8.4755 6.7476-7.6572 6.8051-7.7737 2.5627-5.1923-2.3868 1.4523-8.2455 5.3177-13.019 8.5898-8.488 5.818-8.9306 5.9797-20.071 7.3319-6.2654 0.76049-14.565 1.6504-18.444 1.9775-3.8786 0.32711-13.399 1.3165-21.156 2.1986-7.7572 0.88214-20.695 2.3517-28.75 3.2657-41.895 4.7533-79.921 9.7912-98.381 13.034-4.8808 0.8574-9.9373 1.5589-11.236 1.5589-1.2992 0-5.8496 0.75351-10.112 1.6744-4.2624 0.92096-11.411 2.4493-15.887 3.3963-16.022 3.3904-29.281 7.6711-29.289 9.4557-3e-3 0.53204 2.5508 0.64226 5.6918 0.24559 3.1327-0.39547 12.097-1.1682 19.92-1.717 7.8235-0.54886 19.297-1.506 25.496-2.127 6.1992-0.62094 20.059-1.8849 30.8-2.8088 10.741-0.92388 27.584-2.392 37.43-3.2625 9.8457-0.87048 26.445-2.3308 36.888-3.2452 22.702-1.988 50.018-4.391 67.604-5.9473 7.0482-0.62379 13.195-0.8993 13.659-0.61232 1.0015 0.61899-0.41942 12.016-2.0245 16.238-0.61801 1.6255-1.1236 4.2374-1.1236 5.8044 0 2.738 0.0621 2.767 1.5929 0.74305 0.87608-1.1583 1.6084-2.6542 1.6274-3.3242zm-356.91-4.1445c19.772-4.3894 23.8-12.974 32.64-28.99 1.5413-2.7924 2.8112-5.246 3.0201-6.9979 0.0915-0.76719-2.4892-1.4312-2.7044-0.68918-0.31931 1.1012-0.79967 2.8237-1.4931 4.1035-3.076 5.6765-6.8076 11.24-11.632 15.487-6.5062 5.727-10.826 9.4362-21.141 11.53-10.76 2.184-13.66 2.1389-26.547-0.4137-16.243-3.2173-23.504-6.0498-35.123-13.701-6.8977-4.5422-19.475-16.762-19.475-18.922 0-0.5877-0.36699-1.0685-0.81555-1.0685-1.1186 0-5.1239-8.0812-7.2207-14.569-3.3376-10.327-1.6543-21.026 5.3039-33.711 1.6366-2.9835 3.9501-5.2166 4.6845-6.0823 1.0329-1.6484 1.8525-2.7264 3.19-4.4347 0.16025-0.3925 0.10108-0.83705-0.82362-0.89849-2.3974-0.15938-10.697 9.6175-14.992 17.249-2.1635 3.8441-4.5174 13.725-4.5028 18.901 0.0359 12.69 7.72 28.238 19.667 39.795 10.803 10.45 17.396 14.436 31.81 19.231 16.73 5.5657 33.193 7.0564 46.154 4.179zm107.59-8.7413c3.4238-8.7337 4.395-12.901 5.2719-22.624 0.49233-5.4584 1.3847-13.586 1.983-18.061 1.0993-8.2224 2.9504-23.77 6.1356-51.534 3.4532-30.101 4.7182-36.611 7.7222-39.747 2.8774-3.0034 6.5414-3.9364 31.322-7.976 5.9671-0.97274 14.755-2.4304 19.529-3.2392 4.7736-0.80882 13.562-2.2693 19.529-3.2454 5.9671-0.97613 14.425-2.467 18.795-3.313l7.9458-1.5382 10.806 8.1019c5.9435 4.456 11.278 8.1019 11.854 8.1019 0.57631 0 1.0479 0.44337 1.0479 0.98529 0 0.54191 2.1961 2.3727 4.8802 4.0685 2.6841 1.6958 4.8811 3.4493 4.8821 3.8969 1e-3 0.44752 0.69358 0.81368 1.5389 0.81368 0.84534 0 1.6997 0.37228 1.8986 0.82736 0.19889 0.45503 3.0102 2.7126 6.2474 5.0168 3.2372 2.3042 6.4106 4.6269 7.052 5.1615 0.64143 0.53466 7.391 5.6094 14.999 11.277 12.878 9.594 15.745 12.435 12.548 12.435-1.2718 0-8.3304 2.9792-14.263 6.0202-1.6893 0.86589-3.5188 1.5743-4.0656 1.5743-0.54678 0-4.0468 1.4164-7.7778 3.1475-3.731 1.7311-7.8502 3.4626-9.1537 3.8478-2.7601 0.81559-15.531 12.808-15.531 14.584 0 0.66218-0.48823 1.204-1.0849 1.204-0.59673 0-1.0849 0.78458-1.0849 1.7435s0.61025 1.5172 1.3561 1.2406c0.74591-0.27661 4.7737-1.1052 8.9506-1.8415 4.177-0.73626 9.7915-1.854 12.477-2.4838 10.571-2.4795 15.359-2.7555 15.937-0.91869 2.8165 8.9482 4.1029 9.2926 5.1898 1.3897 1.0257-7.4579 1.8229-7.8074 27.695-12.142 3.2819-0.54982 11.337-2.0176 17.901-3.2618 6.5638-1.2442 14.619-2.7088 17.901-3.2548 3.2819-0.54596 11.337-2.0106 17.901-3.2548 6.5638-1.2442 14.619-2.6823 17.901-3.1958 3.2819-0.51357 7.3096-1.278 8.9506-1.6989l2.9836-0.76513v9.8479c0 8.308 0.2544 9.7503 1.6274 9.2234 0.89505-0.34348 1.6274-1.7829 1.6274-3.1988 0-1.4159 0.65422-4.415 1.4538-6.6647 3.418-9.6166 5.1806-15.719 4.6838-16.216-0.85087-0.85086-22.23-3.4373-30.572-3.6986-7.1831-0.22502-7.8312-0.0435-11.362 3.1817-2.0596 1.8811-4.6024 3.4202-5.6508 3.4202-1.0484 0-3.7468 0.6769-5.9966 1.5042-4.7816 1.7584-25.221 5.0053-31.508 5.0053-4.5322 0-15.437-3.0492-15.437-4.3164 0-0.40266-2.9293-2.8542-6.5096-5.4479-3.5803-2.5937-6.5096-5.1194-6.5096-5.6127 0-0.49327-0.73231-0.89686-1.6274-0.89686-0.89509 0-1.6274-0.40546-1.6274-0.901 0-0.49558-2.0749-2.4043-4.611-4.2416-2.536-1.8373-5.5874-4.2427-6.7808-5.3454-1.1934-1.1027-5.5874-4.6747-9.7643-7.9379-4.177-3.2632-7.8386-6.2005-8.137-6.5274-0.2985-0.32691-3.9575-3.2679-8.1314-6.5355-21.321-16.691-21.162-16.41-21.162-37.492 0-17.996 1.246-16.594-12.477-14.035-4.7736 0.89002-13.562 2.3861-19.529 3.3246-5.9671 0.9385-14.999 2.4069-20.071 3.2632-23.985 4.049-28.979 4.6822-32.005 4.0588-1.7901-0.36876-2.4867-1.0825-12.148-6.4626s-27.282-16.416-40.471-25.321c-6.6655-4.5004-15.023-8.9634-19.515-14.189-0.0103-1.175 1.7735-2.1356 5.6819-3.0613 9.8295-2.328 36.74-5.4916 46.893-5.5129 8.5782-0.0196 9.4803-0.1976 7.5945-1.5126-1.177-0.82067-4.0929-1.7379-6.4797-2.0383-2.3868-0.30046-8.639-1.134-13.894-1.8525-7.3124-0.99986-12.658-1.016-22.783-0.0689-7.2762 0.68052-18.6 1.6668-25.164 2.1917-20.334 1.6261-50.814 6.7812-68.893 11.652-25.139 6.7725-44.985 14.736-61.298 24.598-10.406 6.2904-10.416 7.9088-0.0164 2.9638 8.236-3.9169 13.757-6.0889 20.631-8.1161 11.064-3.2628 12.18-3.2003 21.047 1.179 4.5355 2.2402 8.4905 4.3292 8.7889 4.6424 0.29851 0.31321 4.6923 2.6729 9.7643 5.2439 5.072 2.571 12.151 6.3304 15.731 8.3543 3.5803 2.0239 8.7066 4.7902 11.392 6.1475 2.6852 1.3572 5.1362 2.8038 5.4467 3.2145 0.31059 0.41075 1.7752 1.2728 3.2548 1.9157 1.4796 0.6429 4.1549 2.1327 5.945 3.3107 1.7901 1.178 3.9871 2.4777 4.8822 2.8882 0.89506 0.41053 3.5802 1.9926 5.9671 3.5158 6.4804 4.1355 8.5111 5.3606 10.307 6.218 0.89505 0.42734 3.5802 2.0232 5.9671 3.5464 6.4797 4.1351 8.511 5.3605 10.307 6.2181 0.89505 0.4274 1.8715 1.0719 2.1699 1.4322 0.29818 0.36033 3.96 2.7222 8.1369 5.2486 12.674 7.6659 11.976 4.9944 11.673 44.704-0.23384 30.578-1.2884 62.223-3.0733 92.219-0.66238 11.131 0.19988 11.476 4.0609 1.6274zm448.56-16.306c5.2994-0.91275 12.32-2.734 15.602-4.0472 7.2342-2.8947 16.274-8.2134 16.274-9.5752 0-0.54554 0.4882-0.99185 1.0849-0.99185 1.3463 0 5.4246-3.9911 5.4246-5.3086 0-0.53285 0.62503-1.2087 1.3889-1.5018 0.76389-0.29328 2.3506-2.4203 3.526-4.727 1.1754-2.3067 2.3996-4.4381 2.7203-4.7365 1.6538-1.5386 4.717-11.262 5.8102-18.444 4.5978-30.206-12.154-62.654-42.91-83.114-4.381-2.9145-9.9184-6.1946-12.305-7.289-2.3868-1.0945-5.2-2.4466-6.2512-3.0048-2.8747-1.5262-10.944-4.1573-20.128-6.5627-6.5285-1.71-11.549-2.1331-24.547-2.0687-8.9867 0.0444-18.292 0.59146-20.679 1.2153-2.3869 0.62388-6.187 1.601-8.4448 2.1713-2.2578 0.57035-4.943 1.4841-5.9671 2.0305-1.0241 0.54641-4.0589 2.0506-6.7441 3.3426-2.6852 1.292-6.0212 2.979-7.4134 3.7487l-2.5312 1.3996 4.7013 4.3799 5.6052-2.77c3.0829-1.5235 6.5025-3.2154 7.5993-3.7599 10.796-5.3595 38.896-6.9644 54.625-3.12 11.158 2.7272 15.455 4.362 25.714 9.7831 15.063 7.9595 28.441 19.706 36.538 32.084 2.3422 3.5802 4.6332 6.9978 5.0912 7.5945 0.45793 0.59671 1.73 3.2819 2.8268 5.9671 1.0968 2.6852 2.6755 6.4821 3.5084 8.4376 2.1172 4.9708 3.1119 23.299 1.6782 30.921-1.467 7.7985-7.1109 19.32-11.859 24.209-4.2736 4.4003-5.303 4.7375-2.7998 0.91708 1.3919-2.1243 1.8367-5.3898 1.8842-13.833 0.0649-11.625-1.9666-19.93-6.8577-28.029-1.2078-2.0002-2.6784-4.7352-3.2677-6.0778-0.58934-1.3426-1.5719-2.4411-2.1833-2.4411-0.61157 0-1.1118-0.73232-1.1118-1.6274 0-0.89508-0.7323-1.6274-1.6274-1.6274-1.1378 0-1.6274 1.1468-1.6274 3.812 0 2.0966-0.53845 4.6741-1.1966 5.7279-0.93252 1.4933-0.70824 2.7466 1.0164 5.6812 11.96 20.349 13.143 33.602 4.177 46.81-2.1981 3.238-5.5684 4.7103-15.931 6.9591-15.1 3.2768-37.233-0.6836-54.789-6.1119-13.727-4.2443-31.809-14.994-38.06-20.235s-6.405-6.0636-8.5916-6.8407c-0.73798-0.26228-2.0012-0.10865-2.7123 1.1387-0.74103 1.2998 7.7652 8.734 12.172 11.913 6.1804 4.4592 12.199 9.2789 19.002 12.715 12.958 6.545 24.758 11.817 40.974 14.759 11.55 2.095 19.969 2.1289 31.592 0.127zm-507.86-37.82c0.49978-1.1398 1.8758-2.2829 1.4351-3.4468-0.46605-1.2309-2.4828-0.9573-3.5513-1.7259-0.52998-0.38123-1.0656-0.82129-1.3718-1.3979-1.271-2.3932-0.61832-5.4482-1.6184-7.9668-2.5459-6.4111-7.202-11.768-10.915-17.581-0.26591-0.41631-0.49403-0.86196-0.81366-1.2386-2.182-2.5712-5.3066-4.244-7.4395-6.856-1.3416-1.6429-2.9038-3.3611-3.2898-5.4468-1.5392-8.3183 1.7235-16.982 4.4788-24.98 0.44364-1.2878 2.9714-2.7605 1.9091-3.613-3.0576-2.4536-6.9369 4.2595-8.9617 7.6165-4.0713 6.7498-3.0434 15.484-5.1406 23.082-0.45955 1.665-1.5548 3.1938-1.6274 4.9196-0.25616 6.0901 1.8717 12.176 4.2649 17.782 0.67528 1.5818 1.8863 2.877 2.7912 4.3397 2.3222 3.7537 4.3593 7.6828 6.7681 11.382 1.1502 1.7662 2.1616 3.675 3.6638 5.1534 1.5336 1.5092 3.52 2.477 5.3204 3.6555 2.2233 1.4553 4.8343 2.3908 6.7662 4.2154 1.2501 1.1806 1.2854 4.5442 2.9732 4.2154 1.8075-0.35205 0.65905-3.6378 1.2571-5.3795 0.80199-2.3357 2.1098-4.4665 3.1015-6.7282zm-64.501-2.8708c2.3784-1.2729 2.8596-6.3613 0.79661-8.4242-2.0734-2.0734-5.4618-1.6489-4.763 0.59671 0.32496 1.0442 0.18453 2.5449-0.31156 3.3349-0.72863 1.1596-1.2465 1.0924-2.6875-0.34872-0.98178-0.98176-1.8224-2.1163-1.868-2.5212-0.22927-2.0326-0.88163-4.7748-1.2155-5.1086-0.20706-0.20706-1.9524 0.38694-3.8786 1.3198-4.0944 1.983-4.6853 5.6668-1.431 8.9212 3.2418 3.2417 11.286 4.4098 15.359 2.2302zm-31.366-60.6 1.4589-6.9343 5.4246-1.4783c2.9836-0.81308 8.2254-1.9742 11.649-2.5802 9.4085-1.6657 11.677-2.7821 11.677-5.7463 0-5.1979-2.7865-6.179-21.914-7.7157-12.316-0.98946-21.305-1.1337-29.14-0.46771-10.409 0.88493-27.205 4.2898-31.318 6.3488-0.9409 0.47108-3.6636 1.765-6.0504 2.8754-6.6826 3.1088-12.752 6.9874-12.043 7.6962 0.35117 0.35114 2.2281-0.11694 4.171-1.04 9.1711-4.3577 16.403-5.7226 30.113-5.6832 8.6427 0.0261 14.434 0.52342 15.966 1.3746 2.605 1.4471 3.2888 3.636 6.1677 19.742 2.4329 13.611 4.6839 24.987 6.6549 33.633 0.88428 3.8786 1.6037 8.4012 1.5987 10.05-6e-3 1.649 0.60115 3.9787 1.347 5.177 1.1193 1.7982 1.4803-2.2311 2.0671-23.069 0.39427-14.002 1.3607-28.337 2.1699-32.182zm579 51.832c15.599-1.8017 23.915-6.3144 28.63-15.536 1.7377-3.3989 2.1725-6.3127 2.1291-14.271-0.0467-8.6194-0.45406-10.789-2.9479-15.711-5.995-11.831-16.668-20.31-31.423-24.964-8.1684-2.5766-25.939-2.7685-44.482-0.48046-7.1605 0.88353-15.826 1.8964-19.257 2.2507-3.4311 0.35438-6.2383 1.1656-6.2383 1.8028 0 3.8868 8.2372 5.0286 21.699 3.0076 14.845-2.2287 33.342-3.2696 40.383-2.2725 7.2906 1.0325 16.727 4.9435 21.457 8.893 1.4918 1.2455 2.2241 2.0494 1.6274 1.7863-0.5967-0.26324-4.5024-2.1091-8.6794-4.1022-7.1461-3.4099-8.299-3.6274-19.529-3.6843-11-0.0555-12.232 0.14956-15.731 2.6227-8.5525 6.043-11.687 13.885-9.5506 23.898 1.5142 7.0981 4.6374 12.43 10.685 18.241 4.9782 4.7835 16.918 11.052 21.05 11.052 2.0666 0 2.5394 0.42134 2.0127 1.7938-0.62199 1.6209-2.9452 1.7293-24.106 1.1244-12.879-0.36817-31.717-1.1613-41.861-1.7624-40.021-2.3717-41.742-2.2427-36.26 2.7183 1.9644 1.7777 4.9338 2.1473 23.055 2.8695 11.44 0.45596 21.776 1.0115 22.97 1.2346 5.2455 0.98062 54.865 0.58695 64.368-0.51066zm-7.2121-12.806-4.6847-1.8584 9.0244-1.3736c15.345-2.3358 20.411-7.3733 20.423-20.308 0.0103-7.2883 0.0457-7.3923 1.6274-4.3589 2.2778 4.3676 2.1499 16.951-0.21424 21.07-1.0092 1.7585-3.8677 4.4833-6.352 6.055-5.3641 3.3936-12.516 3.673-19.824 0.77437zm-22.256-14.72c-5.89-5.9745-7.9244-12.407-6.0847-19.24 1.2432-4.617 4.1381-9.4292 5.7085-9.4893 0.49015-0.0196 1.6235-0.76641 2.5186-1.6615 0.89509-0.89508 2.0654-1.6274 2.6008-1.6274 0.5354 0 0.69238 0.73232 0.34891 1.6274-0.34349 0.89505-1.0206 1.6274-1.5048 1.6274-0.48424 0-1.8966 1.6444-3.1387 3.6541-2.9027 4.6968-3.0812 15.107-0.35972 20.991 1.0442 2.2579 2.2704 4.2699 2.7247 4.4711 0.99773 0.44176 3.2688 4.5164 2.5173 4.5164-0.29164 0-2.6904-2.1913-5.3308-4.8696zm22.601-11.63c-7.6143-4.3668-5.9165-13.879 2.4772-13.879 5.8649 0 10.941 7.2217 8.0842 11.501-1.0319 1.5454-5.1324 3.6977-6.9641 3.6554-0.7851-0.0196-2.4039-0.593-3.5973-1.2774zm-542.85 30.243c-0.76086-0.91674-0.82646-2.6808-0.19072-5.1295 2.504-9.6456 4.4177-17.381 6.0227-24.346 0.96261-4.1769 2.1899-9.274 2.7274-11.327 0.99902-3.8156-0.0947-6.5758-2.6051-6.5734-0.6728 6.1e-4 -2.1107 3.7843-3.1954 8.4082-5.3008 22.598-5.3263 22.671-8.2744 23.784-2.1219 0.80094-3.2535 2.5016-4.6838 7.0392-2.832 8.9843-2.8178 9.0122 4.7387 9.2945 5.2958 0.19791 6.3884-0.0326 5.4608-1.15zm491.32-21.143c-1.7959-0.81381-7.8234-4.699-8.6794-5.5946-0.29818-0.31222-2.4953-1.6444-4.8822-2.9607l-4.3397-2.3931v-6.8287c0-6.4614-0.22077-7.0475-4.1046-10.897-2.2576-2.2377-4.5766-4.0685-5.1534-4.0685-0.57682 0-1.0488-0.41908-1.0488-0.93134 0-0.51222-2.6777-2.7092-5.9504-4.8822-6.679-4.4346-10.868-4.9678-16.123-2.0522-6.0391 3.3505-15.952 11.242-15.348 12.219 0.32169 0.52024 2.8922 1.2629 5.7127 1.6504 5.2317 0.71877 10.508 2.0732 23.029 5.912l7.052 2.162-8.1369-0.63293c-4.4753-0.34808-12.531-1.3166-17.901-2.1523-15.819-2.4616-17.255-2.2584-23.109 3.2727-2.7947 2.6405-4.8069 5.0751-4.4718 5.4102 0.33518 0.33517 7.8984 1.1268 16.807 1.7592 41.131 2.9198 48.526 3.9601 57.077 8.029 4.3686 2.0789 8.6753 3.7656 9.5703 3.7482 1.4466-0.0294 1.4466-0.11371 0-0.76904zm-471.94-27.797c3.1005-5.1299 3.1016-5.7342 4.1024-8.8176 1.016-3.13 1.0219-6.11 1.8864-9.6902 2.3227-9.6196 2.1196-10.897-2.1524-13.537-2.6581-1.6428-5.1063-2.2244-8.3644-1.9871l-4.6064 0.33553-1.2874 5.9671c-0.70808 3.2819-1.8499 9.04-2.5373 12.796-0.68737 3.7558-1.5226 7.5394-1.8559 8.4082-0.33335 0.86873-0.0388 1.5795 0.65443 1.5795 1.8748 0 10.671 4.1662 11.446 5.4218 0.99912 1.6166 2.7141 1.3161 2.7141-0.47558zm380.51-15.795c-1.5172-1.1934-3.1743-2.1698-3.6826-2.1698-0.50824 0-1.5339-0.97644-2.2792-2.1699-1.0654-1.7059-1.074-2.6199-0.0405-4.2747 1.4122-2.2614 11.961-6.5746 16.079-6.5746 1.3781 0 5.2337-0.80004 8.568-1.7779 15.483-4.5406 22.784-8.8591 24.508-14.496 0.84114-2.7492 6.2173-10.382 8.8805-12.607 1.1708-0.97852 0.72484-1.7723-2.2855-4.0685-2.0571-1.569-4.261-2.8528-4.8975-2.8528s-1.1573-0.3855-1.1573-0.85667c0-0.47116-6.2456-3.2787-9.2329-5.1473-4.5826-2.8664-8.7509-6.3573-13.297-9.2808-1.1424-0.73457-2.3577-1.3504-3.508-2.0723-2.7646-1.7351-7.5472-5.4264-8.1507-5.4264-0.35426 0-4.0097-2.197-8.1231-4.8822-4.1135-2.6852-7.9525-4.8822-8.5313-4.8822-0.57875 0-1.215-0.36615-1.4139-0.8137-0.43048-0.9686-7.0451-5.6958-7.9699-5.6958-0.35425 0-4.0097-2.197-8.1231-4.8821-4.1134-2.6852-7.784-4.8822-8.1567-4.8822-0.37274 0-1.41-0.73232-2.3051-1.6274-3.0868-3.0868-5.2202-1.7615-10.916 6.7808-5.5753 8.3621-10.085 16.061-10.085 17.216 0 0.33266 1.8308 0.31189 4.0684-0.0461 4.2179-0.675 5.593-0.1208 22.512 9.0739 3.5803 1.9457 8.4624 4.5718 10.849 5.8358 2.3868 1.264 5.1858 2.9921 6.22 3.8403 1.3296 1.0905 3.5538 1.3741 7.5945 0.96843 3.1428-0.31548 6.9348-0.22797 8.4266 0.19466 2.628 0.74449 2.5858 0.81496-1.3562 2.2675-4.6728 1.7218-4.7048 1.8252-2.1918 7.095 1.7444 3.6579 2.1461 3.8929 5.6959 3.3307l3.8191-0.6048-2.7123 2.1066c-1.4918 1.1586-3.2669 2.1174-3.9448 2.1307-0.6779 0.0131-2.0333 1.8549-3.0121 4.0926-0.97872 2.2376-2.499 5.4506-3.3784 7.1399-0.87938 1.6893-1.6096 3.6422-1.6227 4.3397-0.013 0.69753-2.1625 2.7034-4.7764 4.4576-11.51 7.7241-7.9199 18.725 7.291 22.343 5.3889 1.2815 5.5858 1.1978 2.6378-1.121zm-109.36-29.982c1.2631-1.6057 2.2486-4.4588 2.2486-6.5096 0-3.1469-0.36539-3.6509-2.6468-3.6509-2.2748 0-2.6942 0.5712-2.9835 4.0636-0.29525 3.5626-0.73635 4.1321-3.5783 4.6193-1.9274 0.33042-3.3891 1.322-3.6056 2.446-0.29719 1.5428 0.43397 1.8903 3.9765 1.8903 3.3969 0 4.8294-0.62147 6.5891-2.8586zm165.68-4.3277c4.4691-1.8673 5.0325-2.8626 3.0579-5.4018-1.5273-1.9639-1.8246-1.817-6.4743 3.1994-2.6804 2.8918-4.5985 5.7028-4.2624 6.2466 0.3361 0.54386 1.415 0.18485 2.3976-0.7976 0.98251-0.98251 3.3591-2.4435 5.2812-3.2466zm-179.71-7.914c0-4.1492 1.2367-5.5134 4.9982-5.5134 3.247 0 3.6812-0.33478 3.6812-2.8388 0-2.4145-0.36488-2.7411-2.4411-2.1847-1.3426 0.3598-3.2955 0.66088-4.3397 0.66901-3.1877 0.0261-6.2383 4.0111-6.2383 8.1518 0 3.0739 0.4133 3.7972 2.1699 3.7972 1.4157 0 2.1698-0.7233 2.1698-2.0811zm194.2-13.654c2.6852-0.81438 8.0556-2.2942 11.934-3.2884 3.8786-0.99424 9.0049-2.4296 11.392-3.1897 2.3868-0.76006 7.5131-2.2341 11.392-3.2756 3.8786-1.0415 9.4931-2.5888 12.477-3.4385 6.8346-1.9464 15.634-4.4134 23.326-6.5396 11.749-3.2476 13.453-4.129 16.453-8.5069 3.0986-4.5221 5.2445-15.047 3.4365-16.855-0.60235-0.60233-2.2592-0.5168-4.2037 0.21685-2.986 1.1268-3.1827 1.545-2.8255 6.0034 0.21131 2.6358-0.18061 6.1554-0.87065 7.8216-1.3072 3.1558-2.5496 3.6794-19.585 8.253-3.8786 1.0413-9.2139 2.57-11.856 3.3971-2.6423 0.82709-6.0598 1.5031-7.5945 1.5022-2.5083-1e-3 -2.8223-0.46648-3.107-4.6022-0.1744-2.5304-0.66242-4.9094-1.0849-5.2868-0.42248-0.3774-2.9652-0.13716-5.6503 0.53375l-4.8822 1.2199 0.37518 6.2142c0.42744 7.0798 0.84034 6.7253-11.767 10.103-16.625 4.454-21.394 6.1358-24.175 8.5252-1.6215 1.3933-2.9482 2.8755-2.9482 3.2939 0 0.77079 1.0147 0.55243 9.7643-2.1013zm-38.622-15.597c3.4137-4.5707 12.011-12.065 13.841-12.065 3.0256 0 7.4218-4.8416 7.4218-8.1738 0-2.6443-0.25212-2.794-3.526-2.0939-3.7422 0.80013-8.3585 3.0693-12.642 6.2144-1.4337 1.0526-2.8634 1.6571-3.1772 1.3433-0.82663-0.82663 5.6353-6.0606 11.475-9.2942 5.7445-3.181 6.3112-4.1055 4.247-6.9284-1.4383-1.967-1.6428-1.9511-6.7557 0.52394-2.8999 1.4038-6.0227 3.1569-6.9396 3.8957-7.4449 5.9988-9.7881 8.2723-14.847 14.406-4.4354 5.3773-5.4881 7.3202-4.5673 8.4298 0.65818 0.79306 1.6266 1.4419 2.152 1.4419 0.52538 0 3.2729 1.4452 6.1055 3.2116 3.3169 2.0684 5.3053 2.7618 5.5857 1.9482 0.23971-0.69489 0.97186-1.9815 1.6274-2.8592zm-445.26-9.9888c18.236-5.3616 20.726-5.9805 40.685-10.112 7.9685-1.6496 24.395-4.0991 41.77-6.2284 5.6687-0.69475 18.468-1.5531 28.444-1.9075 14.559-0.5172 17.963-0.92461 17.255-2.065-0.70603-1.1375-10.81-1.4211-50.685-1.4228-27.609-1e-3 -54.396 0.50661-60.109 1.1394-5.6687 0.6278-13.724 1.4078-17.901 1.7333-13.757 1.072-27.666 2.949-27.666 3.7336 0 0.4242 3.5396 1.427 7.8657 2.2284 4.3262 0.80143 8.2416 1.9782 8.7011 2.6151 0.45945 0.63692 0.784 3.5991 0.7212 6.5826-0.15609 7.425-0.16982 7.3798 1.9694 6.5305 1.0442-0.41453 5.072-1.6867 8.9506-2.827zm480.77-1.1899c4.9647-4.8402 5.8169-7.5308 5.7642-18.198-0.0294-6.0949-0.6036-11.358-1.3943-12.795-1.8449-3.353 0.23744-3.087 2.9635 0.37862l2.218 2.8197 9.5237-2.945c5.238-1.6198 11.232-3.5486 13.321-4.2863 8.1783-2.8889 15.012-4.9177 16.564-4.9177 0.89456 0 1.8818-0.97643 2.1939-2.1699 1.102-4.2141 2.5252-2.0765 3.9477 5.9295 1.6102 9.0627 0.61862 15.582-3.3474 22.007-3.2249 5.2245-0.20707 4.6299 6.3295-1.2472 6.2912-5.6563 8.3818-11.834 7.7828-22.999l-0.38038-7.089 5.9671-1.9336c3.2819-1.0635 10.971-3.5447 17.088-5.5138 10.06-3.2386 11.12-3.831 11.12-6.2092 0-3.9307 2.434-1.031 4.688 5.585 2.0441 5.9999 2.3086 11.413 0.81239 16.63-1.3156 4.5871 0.16197 4.4846 3.7826-0.26225 2.9001-3.8021 4.5807-11.825 4.1671-19.892-0.21327-4.1584-3.2397-7.4291-9.4671-10.231-5.6436-2.5391-7.3964-2.4227-18.128 1.204-8.2487 2.7876-22.237 7.2042-37.389 11.805-2.9835 0.90589-7.1334 2.2591-9.2219 3.007-2.0885 0.74795-11.12 3.6641-20.071 6.4804-8.9506 2.8163-18.767 5.9146-21.815 6.8853l-5.5412 1.7648 3.6426 7.258c3.1645 6.3055 3.6426 8.3259 3.6426 15.395 0 7.6166-2.0468 14.588-4.6177 15.729-0.45125 0.20019-0.52987 0.83414-0.17473 1.4088 0.64684 1.0466 2.239 0.0964 6.029-3.5988zm-134.07-3.056c1.21-0.89509 3.4721-3.3362 5.0269-5.4246 3.2831-4.4099 10.637-17.845 10.637-19.434 0-0.92107-3.6838-3.3908-16.812-11.272-1.1911-0.71496-3.9465-2.6426-6.1232-4.2835-28.02-16.425-31.225-16.324-46.5-22.02-4.4291-1.6492-3.9434-1.41 8.137-0.87239 13.793 0.61385 20.143 2.1747 32.664 8.0287 8.1344 3.8031 10.589 4.1151 6.268 0.79659-1.7214-1.322-3.4695-2.8946-3.8846-3.4946-1.2603-1.8217 0.0774-2.1427 2.1042-0.50488 4.6522 3.7595 25.67 11.751 27.112 10.308 0.3578-0.3578 0.44716-0.80386 0.19856-0.99115-0.24854-0.18747-1.7661-1.3336-3.3722-2.5474l-2.9201-2.2068 9.4297-1.3109c5.1863-0.72102 11.951-1.939 15.034-2.7066 5.318-1.3245 5.6596-1.2798 6.6964 0.87474 0.60085 1.2488 1.3534 3.491 1.6722 4.9827 0.31874 1.4918 1.3374 3.6887 2.2635 4.8821 1.5647 2.0164 1.6399 1.7479 1.0636-3.7972-1.5389-14.809-4.2644-21.056-11.022-25.265-4.7323-2.9474-15.642-6.1978-20.802-6.1978-3.1399 0-3.3515-0.18094-1.905-1.6274 0.89508-0.89508 2.4922-1.6274 3.5493-1.6274 1.2705 0 1.5572-0.36467 0.84596-1.0759-5.6805-0.19696-21.517 2.638-27.262 5.7461-2.3899 1.3281-2.3815 1.3509 1.0849 2.9451 3.2052 1.474 0.67254 1.6654-30.682 2.3184-18.796 0.39149-36.128 1.2342-38.515 1.8727-2.3868 0.63848-5.8672 1.1726-7.7342 1.1868-2.5618 0.0196-4.7574 1.3258-8.9506 5.3251-6.508 6.4115-10.824 14.731-13.751 21.637-1.726 4.1036-1.8044 5.3317-0.62186 9.7529 1.8288 6.8377 5.7661 15.234 7.4461 15.879 1.0033 0.38498 1.3802-1.1367 1.4066-5.6783 0.0262-4.4389 0.61552-6.8988 2.0725-8.6453 1.12-1.3426 2.3503-2.4411 2.734-2.4411 0.38364 0 4.0631 2.197 8.1765 4.8822 10.473 6.1431 18.304 10.796 24.652 13.937 15.553 7.6906 21.9 10.308 43.698 18.019 9.2933 3.2877 12.494 3.297 16.884 0.0493zm-146.18-5.7716c-0.78853-0.78754-6.3986-5.1264-12.467-9.6418l-11.033-8.21 3.5842-3.106c4.5373-3.932 6.469-5.1786 12.515-8.0766 2.6852-1.287 5.7241-2.7664 6.7532-3.2876 3.642-1.8446 22.62-7.6213 29.953-9.1172 2.9193-0.59557 3.9895-1.605 5.558-5.2427 1.0684-2.4778 1.7491-4.8431 1.5127-5.2561-0.23644-0.41307-2.4934-0.9905-5.0156-1.2832-47.391-5.5004-58.268-6.3839-63.828-5.1852-2.6223 0.56529-8.6737 1.8558-13.447 2.8678-4.7737 1.012-10.283 2.5272-12.242 3.367-1.9596 0.83985-4.3253 1.527-5.2572 1.527s-2.9903 0.6825-4.5741 1.5167c-1.5839 0.83418-5.4428 2.6582-8.5756 4.0534-3.1327 1.3952-5.6958 2.9096-5.6958 3.3655 0 0.45582-0.54003 0.82878-1.2001 0.82878-0.65999 0-3.117 1.5182-5.4599 3.3739-4.4366 3.5138-4.6274 4.6425-1.7679 10.459 1.0022 2.0385 2.0811 2.4411 6.5422 2.4411 5.3079 0 24.579 3.5078 29.269 5.3278 1.3485 0.52323 5.3812 1.8112 8.9614 2.8622 3.5802 1.051 8.048 2.5675 9.9283 3.37 1.8803 0.80249 3.9387 1.4591 4.5741 1.4591 0.63547 0 2.7587 0.6877 4.7182 1.5282 1.9596 0.84052 7.4686 3.1294 12.242 5.0864 4.7736 1.957 9.6424 4.1986 10.819 4.9813 2.9646 1.9715 5.6096 1.9651 3.6334-0.0103zm195.12-19.671c2.7967-1.4335 10.631-4.8866 16.091-7.0922 1.1934-0.48216 3.9524-1.6587 6.1311-2.6146 2.1786-0.95593 4.3018-1.738 4.7182-1.738 0.41632 0 2.2954-0.66373 4.1757-1.4749 8.2629-3.5648 10.114-4.2799 13.183-5.0916 1.7901-0.47345 6.6723-2.0485 10.849-3.5001 4.177-1.4516 10.524-3.427 14.104-4.3898 3.5802-0.96282 9.3168-2.5116 12.748-3.4417 3.4311-0.93016 6.2384-1.9985 6.2384-2.374 0-0.82865-36.762 0.42251-42.837 1.4579l-4.3219 0.73662s2.0434-1.7658 2.9658-2.7486c1.0706-1.1408 2.1525-2.3012 2.9658-3.6378 2.7193-4.4688 2.958-7.7133 6.2456-14.397 0.97415-1.9804 2.7391-4.1188 3.9222-4.752 4.3322-2.3185 15.634-4.3844 27.805-5.0825l12.477-0.71568-11.255-1.4712c-12.682-1.6577-24.545-2.5196-35.939 1.2018-3.3275 1.0868-6.1861 3.4547-8.6794 5.9117-5.7751 5.691-9.3192 13.271-13.986 19.901-2.9292 4.161-5.5429 8.5641-8.797 12.476-5.792 6.9631-6.3306 7.8377-18.984 19.44-5.4884 5.0323-5.4225 6.2695 0.18093 3.3974zm-353.72-19.582c0.34347-0.89505 1.7762-1.6274 3.1839-1.6274 1.4077 0 4.1627-0.68303 6.1222-1.5179 1.9595-0.83485 5.7598-2.3445 8.445-3.3548 2.6852-1.0103 6.3468-2.4807 8.137-3.2675 1.7901-0.78683 4.2312-1.6952 5.4246-2.0185 3.5599-0.96437 12.917-4.473 14.375-5.3903 3.4926-2.1969 0.0356-3.9255-3.812-1.9061-2.4119 1.2659-8.79 3.3945-23.04 7.6894-6.2655 1.8884-13.361 4.1259-15.768 4.9721-2.4068 0.84629-5.1207 1.5387-6.031 1.5387-0.91024 0-2.6027 0.73235-3.761 1.6274-2.0847 1.6109-2.0847 1.6439 0 3.2548 1.1583 0.89506 3.0044 1.6274 4.1025 1.6274s2.2776-0.73234 2.621-1.6274zm17.271-14.775c3.2786-0.82554 4.8201-1.7893 4.8201-3.0134 0-0.98983 0.72203-2.8305 1.6045-4.0904 1.4517-2.0726 1.4147-2.3403-0.38865-2.8119-3.588-0.93829-8.7856 2.1257-10.478 6.177-2.3916 5.724-2.6336 5.5203 4.4423 3.7386zm452.77-5.259c5.1397-0.57643 17.023-1.8624 26.407-2.8577 9.384-0.99528 16.82-2.2004 16.525-2.678-0.29522-0.47764-3.0908-1.6063-6.2125-2.5081-4.5772-1.3223-9.6239-1.5134-26.074-0.98738l-20.398 0.65231-1.5714 3.761c-2.7034 6.4702-3.2401 6.2513 11.325 4.6178zm-435.2-0.72069c1.3426-0.35981 2.4411-1.3296 2.4411-2.155 0-1.044 1.4128-1.5008 4.6407-1.5008 2.5524 0 5.7697-0.79074 7.1495-1.7572 1.9287-1.3509 3.0823-1.4958 4.9899-0.62658 2.2413 1.0212 2.6778 0.72013 4.5135-3.1126 1.1177-2.3337 2.6425-4.2487 3.3884-4.2556 0.74586-6e-3 1.3562-0.46579 1.3562-1.0198 0-0.55403 2.4411-2.5891 5.4246-4.5224 2.9836-1.9333 5.4246-3.819 5.4246-4.1905 0-2.0498-26.861 2.3373-32.374 5.2874-2.3293 1.2466-6.1074 6.835-9.1248 13.497-2.5721 5.6789-2.5949 5.633 2.1699 4.3561zm44.753-1.486c0-0.59671-0.73233-1.0849-1.6274-1.0849s-1.6274-0.45942-1.6274-1.0209c0-1.1289 2.1556-2.7338 3.7068-2.7597 0.54698-0.0103 1.1979-0.62663 1.4464-1.3722 0.66844-2.0052-2.7335-2.9038-5.7648-1.5226-2.9308 1.3353-3.1703 1.0083-1.52-2.0753 0.84972-1.5877 0.77048-2.0985-0.32561-2.0985-3.9918 0-5.392 6.2841-2.3635 10.608 1.7246 2.4622 8.0754 3.5052 8.0754 1.3263zm55.331-13.547c3.8786-1.0224 9.0049-2.4809 11.392-3.241 2.3868-0.76007 7.5131-2.2041 11.392-3.2089 11.201-2.9018 18.601-4.9478 24.014-6.6396 2.7653-0.86423 5.6946-1.5743 6.5096-1.578 0.81501-3e-3 2.9085-0.75069 4.6523-1.66 3.9037-2.0357 5.0443-0.73914 4.1575 4.7259-0.77632 4.7838 0.84152 3.9641 3.9513-2.0022 2.8932-5.5507 3.0768-15.04 0.38359-19.831-2.4493-4.3567-8.4086-9.9184-13.264-12.379-2.1032-1.0657-4.068-2.2307-4.3664-2.5888-0.29817-0.35806-1.2748-0.92978-2.1699-1.2705-1.0988-0.4183-0.84656-0.64734 0.7769-0.70514 2.2301-0.0793 8.4378 2.1479 12.242 4.3926 0.89505 0.5281 2.3193 1.2848 3.1649 1.6815 0.84568 0.39667 3.4175 2.6583 5.7152 5.0259 4.1195 4.2449 4.2087 4.2765 6.4177 2.2774 2.6028-2.3555 5.3158-8.3483 5.3158-11.742 0-2.5918-7.2333-9.9462-12.477-12.685-1.7901-0.93522-6.1841-2.3469-9.7643-3.137-3.5802-0.79015-6.9244-1.7974-7.4315-2.2382-1.3261-1.1529 13.994-16.208 16.493-16.208 1.8092 0 4.5367-4.0657 3.8783-5.7812-0.56863-1.4818 0.55595-1.3372 7.2159 0.92801 4.3392 1.4759 8.3804 2.6834 8.9803 2.6834 0.59999 0-1.5605-1.9382-4.801-4.3072-3.2405-2.369-6.4815-4.81-7.2022-5.4246-0.72069-0.61457-1.8192-1.1174-2.4411-1.1174-0.62193 0-1.1307-0.39432-1.1307-0.87622 0-0.48195-3.1316-2.4348-6.9592-4.3397-20.781-10.342-38.608 3.9072-38.608 30.86 0 9.0301 1.3672 9.7269 4.7489 2.4206 2.3953-5.1752 8.927-12.056 10.994-11.581 1.0731 0.24691 0.64151 2.0052-1.6792 6.8417-1.718 3.5802-3.8855 9.0575-4.8167 12.172-1.4691 4.913-2.3722 6.056-6.826 8.6392-2.8231 1.6374-5.2956 3.3613-5.4945 3.831-0.19889 0.46967-0.76937 0.85393-1.2678 0.85393-0.49838 0-5.706 2.813-11.573 6.251-5.8666 3.4381-15.549 8.6556-21.516 11.595-5.9671 2.939-11.046 5.4895-11.286 5.6679-0.24036 0.17832 0.82337 1.3157 2.3636 2.5273 5.3425 4.2024 7.2952 8.7946 7.2952 17.157v7.6812l2.9835-0.90557c1.641-0.49804 6.157-1.742 10.036-2.7645zm-20.629-7.657c-0.69482-2.1053-2.674-5.3724-4.3983-7.2602-3.823-4.1856-8.6651-4.5541-14.126-1.075l-3.7005 2.3574 5.6057-0.65347c5.5114-0.64247 5.6802-0.57517 10.036 4.0033 2.4364 2.5612 4.4299 5.513 4.4299 6.5596 0 2.2973 2.567 3.4414 3.0648 1.366 0.194-0.80835-0.21587-3.1922-0.91082-5.2976zm187.6-3.736c2.1501-0.59724 4.7348-1.0886 5.7439-1.092 3.4945-0.013 2.8327-1.6626-1.5139-3.7768-2.4015-1.1681-4.6068-2.7504-4.9007-3.5162-0.29392-0.76585-1.0924-1.3934-1.7744-1.3945-0.68202-1e-3 -2.9462-2.5053-5.0315-5.5648-2.0853-3.0595-4.7705-6.6732-5.9671-8.0302-2.677-3.0362-11.004-5.9265-17.131-5.9463-5.4979-0.0164-9.4552-0.97272-9.4552-2.2816 0-0.5271 0.94764-0.95841 2.1058-0.95841 3.7368 0 3.5235-2.0422-0.69377-6.6422-6.222-6.7867-19.96-20.481-20.547-20.481-0.28414 0 0.20411 1.3426 1.0848 2.9835 2.8391 5.2905 4.7935 11.554 5.587 17.904 0.84616 6.7724 1.2124 6.1847-9.2353 14.821l-2.7123 2.242 6.5096-0.76455c3.5803-0.42052 13.238-0.78181 21.463-0.80296 12.146-0.0326 15.144 0.26716 15.97 1.589 1.3058 2.0897-1.5784 2.9996-9.9745 3.1466-6.7487 0.11823-8.3309 1.1794-5.6924 3.8179 1.2962 1.2962 4.1458 1.7402 11.673 1.8186l9.9581 0.1039-5.4246 1.5944c-22.002 6.4665-25.073 8.1592-18.246 10.055 2.2782 0.63259 5.0432 1.1529 6.1446 1.1562 1.1014 4e-3 3.2984 0.69467 4.8822 1.5363 1.5838 0.84161 4.5885 2.2237 6.677 3.0713 2.0885 0.8476 5.002 2.0321 6.4745 2.6323 2.312 0.94235 3.1848 0.59829 6.3975-2.5218 2.0462-1.9872 5.4795-4.1017 7.6296-4.699zm-215.34-18.025c-2.8886-6.5315-3.2016-9.2472-1.4446-12.53 1.9276-3.6017 0.49393-3.353-3.7511 0.65056-2.1981 2.0731-5.4466 4.6258-7.2187 5.6727-1.7722 1.0468-3.2031 2.4084-3.1798 3.0256 0.065 1.7274 9.3575 8.1742 11.782 8.1742 1.1833 0 2.44 0.46689 2.7927 1.0376 0.35268 0.57064 1.3152 0.77891 2.139 0.46279 1.2016-0.46106 0.9802-1.7449-1.1197-6.4931zm30.69-12.109c5.298-5.2133 11.808-12.164 14.467-15.446 2.659-3.2819 5.504-6.6693 6.3223-7.5275 2.1954-2.3026 12.352-18.457 14.367-22.85 4.6298-10.095 5.3106-12.449 5.3106-18.362 0-9.1996-3.819-16.906-13.25-26.738-2.9018-3.0251-6.1119-7.1625-7.1336-9.1941-1.6292-3.2396-2.6582-3.87-8.3672-5.1254-3.5803-0.78733-14.077-1.5123-23.326-1.611l-16.816-0.1793-7.5945 3.6091c-5.6718 2.6954-8.9711 6.6158-16.003 12.182-3.8361 3.0364-7.3493 7.8331-9.6509 12.595-3.5945 7.4375-4.8049 15.866-6.0492 24.032-0.56723 3.7226-0.63037 11.279-0.63037 11.279l3.1475-0.72924c1.7311-0.40109 4.9628-1.571 7.1817-2.5998 3.5726-1.6566 4.1087-2.4292 4.6855-6.7528 2.2504-16.869 6.59-29.841 11.73-35.064 1.9592-1.9908 1.9889-1.979 1.2816 0.51016-0.39821 1.4015-1.3703 4.0128-2.16 5.803-3.5686 8.0883-6.2485 27.804-3.9707 29.212 2.1165 1.308 13.414-7.0943 14.709-10.939 0.65007-1.9304 4.9361-7.0216 9.8186-11.663 7.7981-7.4131 9.0944-8.237 12.96-8.237 3.1598 0 5.0822 0.75423 7.2737 2.8539 3.4414 3.2971 4.3663 2.7785 7.9918-4.4813 1.1717-1.9713 4.3141-9.5683 5.1539-8.3037 0.95067 1.707-4.5107 13.191-5.6104 20.041-0.46393 2.8895-0.72251 4.4898-0.39876 8.7705 0.89286 11.806-0.85982 17.793-8.5533 29.217-3.6679 5.4464-7.2019 10.458-7.8533 11.136-9.1849 9.5681-14.544 20.888-13.222 27.932 0.40944 2.1826 1.1576 3.9682 1.6626 3.9682 0.50497 0 1.2544 1.3399 1.6654 2.9775 1.4008 5.5813 2.6064 5.9922 7.1114 2.4242 2.2644-1.7934 8.4517-7.5262 13.75-12.739zm-47.804-0.79926c2.4561-2.5978 14.467-13.194 14.013-14.406-0.29262-0.29296-2.0435 0.0111-3.8228 0.83067-4.132 0.18033-6.2643-3.8707-8.0894-7.4131-2.337-4.3532-6.5002-15.282-5.9714-15.676 4.6814-3.4856 10.697-8.2216 12.358-9.7297 2.0685-1.8775 1.852-2.3198-1.3562-0.71731-4.1415 2.0687-6.302 3.3765-9.8304 4.9104-2.1787 0.95593-4.9376 2.1664-6.1311 2.6899-1.1934 0.52359-3.5635 1.4576-5.267 2.0756-2.6803 0.97242-3.0002 1.5228-2.3771 4.0908 0.79214 3.265 6.473 18.44 8.8277 23.581 0.81993 1.7901 2.2067 5.0856 3.0818 7.3232 1.6584 4.241 3.106 4.1019 4.5642 2.4411zm44.371-61.735c2.8106-2.0552 2.8337-9.4076 0.0393-12.495-2.4558-2.7136-6.7655-2.923-9.4861-0.46094-3.1557 2.8558-2.4949 4.7622 1.5413 4.4469 2.8747-0.2247 3.5862 0.15023 3.855 2.0305 0.18127 1.2682-0.39728 3.0328-1.2857 3.9213-1.2056 1.2056-1.3028 1.9279-0.38322 2.8475 1.6333 1.6333 3.1981 1.554 5.7196-0.28968z" stroke-width="1.0849"/>
</svg>
